HIERARCHY
ROOT Hips
{
     OFFSET 1.88212 96.90440 -13.34250
     CHANNELS 6 Xposition Yposition Zposition Zrotation Xrotation Yrotation
     JOINT Spine
     {
          OFFSET 0.00000 11.89050 0.00000
          CHANNELS 3 Zrotation Xrotation Yrotation
          JOINT Spine1
          {
               OFFSET -0.00000 25.65740 0.12766
               CHANNELS 3 Zrotation Xrotation Yrotation
               JOINT HEad
               {
                    OFFSET 0.00000 8.73416 0.01134
                    CHANNELS 3 Zrotation Xrotation Yrotation
                    End Site
                    {
                         OFFSET -0.29000 12.77420 2.51395
                    }
               }
               JOINT LeftShoulder1
               {
                    OFFSET 8.99000 -0.36225 -0.22000
                    CHANNELS 3 Zrotation Xrotation Yrotation
                    JOINT LeftArm
                    {
                         OFFSET 10.28270 -0.00338 0.32212
                         CHANNELS 3 Zrotation Xrotation Yrotation
                         JOINT LeftForeArm
                         {
                              OFFSET 32.76690 0.09914 -1.42434
                              CHANNELS 3 Zrotation Xrotation Yrotation
                              JOINT LeftHand
                              {
                                   OFFSET 27.56430 0.08536 1.02216
                                   CHANNELS 3 Zrotation Xrotation Yrotation
                                   End Site
                                   {
                                        OFFSET 16.74430 -0.60000 1.50291
                                   }
                              }
                         }
                    }
               }
               JOINT RightShoulder
               {
                    OFFSET -8.99000 -0.36225 -0.22000
                    CHANNELS 3 Zrotation Xrotation Yrotation
                    JOINT RightArm
                    {
                         OFFSET -10.28270 -0.00338 0.32212
                         CHANNELS 3 Zrotation Xrotation Yrotation
                         JOINT RightForeArm
                         {
                              OFFSET -32.89710 0.09914 -1.42434
                              CHANNELS 3 Zrotation Xrotation Yrotation
                              JOINT RightHand
                              {
                                   OFFSET -27.49210 0.08536 1.02216
                                   CHANNELS 3 Zrotation Xrotation Yrotation
                                   End Site
                                   {
                                        OFFSET -16.63120 -0.60000 1.50291
                                   }
                              }
                         }
                    }
               }
          }
     }
     JOINT LeftUpLeg
     {
          OFFSET 8.94580 -8.66707 0.10165
          CHANNELS 3 Zrotation Xrotation Yrotation
          JOINT LeftLeg
          {
               OFFSET 0.00000 -44.42270 1.37270
               CHANNELS 3 Zrotation Xrotation Yrotation
               JOINT LeftFoot
               {
                    OFFSET -0.25355 -42.09240 -1.46059
                    CHANNELS 3 Zrotation Xrotation Yrotation
                    JOINT LeftToes
                    {
                         OFFSET -0.04000 -4.41509 8.49910
                         CHANNELS 3 Zrotation Xrotation Yrotation
                         End Site
                         {
                              OFFSET 0.08000 -0.04745 9.77979
                         }
                    }
               }
          }
     }
     JOINT RightUpLeg
     {
          OFFSET -8.94580 -8.66707 0.10165
          CHANNELS 3 Zrotation Xrotation Yrotation
          JOINT RightLeg
          {
               OFFSET 0.00000 -44.42270 1.37270
               CHANNELS 3 Zrotation Xrotation Yrotation
               JOINT RightFoot
               {
                    OFFSET 0.25355 -42.09240 -1.46059
                    CHANNELS 3 Zrotation Xrotation Yrotation
                    JOINT RightToes
                    {
                         OFFSET 0.04000 -4.41509 8.49910
                         CHANNELS 3 Zrotation Xrotation Yrotation
                         End Site
                         {
                              OFFSET -0.08000 -0.13745 9.77979
                         }
                    }
               }
          }
     }
}
MOTION
Frames: 19
Frame Time: 0.01667
-880.18646 93.68795 -307.51303 8.67613 -10.14529 19.98215 -10.22237 16.68805 -19.50939 -0.00616 0.01717 0.01467 1.34953 7.55846 6.38085 -5.43153 13.68582 8.17968 -105.63205 -51.12208 -86.89934 -30.26377 47.03185 -82.66308 23.25588 12.35208 -13.60108 13.29277 16.09194 6.85638 87.41411 -11.53640 74.03228 17.60833 35.05903 99.71507 12.50167 12.60342 7.10278 19.94249 -16.06377 -38.40936 -44.84137 3.56562 88.59486 6.45175 0.02858 -0.00515 0.75711 -19.09458 -58.23880 -22.59319 0.13817 9.08536 43.18205 9.33892 -49.46222 58.30952 -0.04513 -0.03055 -82.13094 -55.15076 38.48361 
-879.91541 93.44199 -307.36652 8.50215 -11.06853 18.49046 -9.81027 17.57222 -19.28857 -0.00582 0.01567 0.01217 1.07122 7.49999 6.51383 -5.33478 13.42049 8.48189 -105.71136 -50.43639 -87.03676 -29.83142 47.03231 -82.34487 23.05154 11.84283 -13.55223 13.31448 15.91665 6.80037 87.39124 -11.38704 74.18967 17.69678 34.84814 99.45398 12.70953 12.20792 7.54384 19.86831 -14.70388 -38.11562 -43.88904 3.37986 86.63467 6.34093 0.00159 0.00113 -0.43558 -19.55430 -57.46683 -20.97948 0.65730 6.29387 39.87469 12.56383 -45.77015 65.80902 -0.04856 -0.02961 -88.16949 -54.34000 38.36717 
-879.62817 93.22794 -307.17612 8.15220 -11.92739 16.93658 -9.28839 18.46107 -18.86818 -0.00489 0.01436 0.00963 0.81839 7.44715 6.51450 -5.06881 13.12060 8.47124 -105.79681 -49.83713 -87.20144 -29.38729 46.96437 -82.04164 22.78393 11.23640 -13.69914 13.37942 15.63015 6.65267 87.45249 -11.21157 74.33572 17.64437 34.71358 99.28447 12.86824 12.29193 7.45915 19.75796 -13.32883 -37.59544 -41.47610 1.72323 81.76423 -7.29825 -0.62618 0.14787 15.13824 -16.36501 -53.62624 -19.38550 1.11069 3.77681 36.62124 15.20512 -42.12027 72.97856 -0.04585 -0.02588 -93.92976 -53.47003 38.47324 
-879.32629 93.03471 -306.95102 6.65449 -13.22441 13.34134 -8.23197 19.33670 -16.40863 -0.00465 0.01246 0.00718 0.57805 7.39874 6.42323 -4.76926 12.73176 8.21640 -105.65215 -49.33318 -87.25849 -28.87456 46.77132 -81.80666 22.66343 10.78357 -13.91240 13.60247 15.17134 6.20011 87.45047 -10.83635 74.40115 17.52180 34.63780 99.18204 13.05686 12.05004 7.76501 21.06115 -10.76808 -35.26505 -38.11933 0.16375 75.96391 -20.77401 -0.80345 0.05472 29.48567 -13.76372 -49.78856 -16.78400 1.20838 3.29170 33.52527 17.33506 -38.62999 79.79790 -0.03988 -0.02440 -99.52748 -52.69360 38.43095 
-879.01910 92.89729 -306.65881 5.20099 -14.26777 10.04003 -7.26768 20.24463 -14.17331 -0.00379 0.01090 0.00500 0.34468 7.36014 6.26927 -4.40477 12.27169 7.76134 -105.42472 -48.93765 -87.23196 -28.35092 46.51911 -81.64262 22.47051 10.25612 -13.99854 13.79549 14.60701 5.77570 87.50992 -10.51711 74.41935 17.35115 34.58917 99.12495 13.20096 12.01950 7.72942 21.94882 -8.43236 -33.07872 -35.02312 -1.57958 70.68532 2.32558 1.16906 -0.12447 -3.79992 -14.49570 -61.57954 -14.45528 1.42748 2.77188 30.66698 18.99601 -35.36585 86.24831 -0.03418 -0.02455 -104.92912 -51.82489 38.46974 
-878.70215 92.83307 -306.27243 3.82410 -15.10907 6.99267 -6.41610 21.16628 -12.12615 -0.00367 0.00938 0.00314 0.12425 7.35348 6.07630 -4.08240 11.77664 7.21250 -105.14743 -48.63428 -87.20752 -27.85631 46.28636 -81.53830 22.28132 9.92675 -14.20869 14.06134 13.97367 5.20758 87.50024 -10.09194 74.38317 17.08345 34.53614 99.17291 13.33492 11.98607 7.88957 22.51002 -6.45497 -30.96587 -32.80627 -2.93104 67.10342 -7.30795 -0.24151 0.23861 12.80187 -11.26064 -50.91483 -12.40753 1.77379 2.26497 28.08138 20.26610 -32.33158 92.35170 -0.02893 -0.02422 -110.27340 -51.08437 38.21625 
-878.36530 92.81457 -305.78833 2.53106 -15.78433 4.16026 -5.67870 22.07174 -10.24085 -0.00332 0.00800 0.00133 -0.08428 7.37976 5.87167 -3.77923 11.26237 6.59396 -104.89029 -48.46026 -87.17881 -27.40309 46.15228 -81.51303 22.28223 9.52819 -14.28447 14.39182 13.31111 4.64004 87.41149 -9.69157 74.30960 16.85320 34.48052 99.21972 13.46723 11.71483 8.00328 22.84434 -4.90014 -28.90188 -31.11895 -3.90405 64.54023 -0.77799 0.18785 -0.00674 4.72966 -11.44199 -53.04422 -10.75186 2.27883 1.81348 26.63039 20.77568 -29.80956 90.16866 0.00356 0.00604 -108.30213 -50.50370 37.86184 
-878.02081 92.85281 -305.22131 1.33176 -16.32475 1.52136 -5.05834 22.93633 -8.50837 -0.00282 0.00656 -0.00057 -0.28619 7.45940 5.67573 -3.47790 10.74789 5.92625 -104.68032 -48.39987 -87.12884 -27.10496 46.06103 -81.46745 22.07406 8.99702 -14.39868 14.59209 12.64029 4.05613 87.41264 -9.24956 74.18193 16.62723 34.44118 99.32002 13.71303 11.70928 8.03848 23.02674 -3.77801 -26.89491 -29.76454 -4.47313 62.62622 -2.53102 -0.00674 0.02786 8.49340 -9.90123 -50.35202 -9.50337 2.92266 1.44688 25.19736 21.23349 -27.46588 88.21288 0.00302 0.00990 -105.93407 -50.08622 37.92565 
-877.65887 92.94680 -304.59604 0.22759 -16.75397 -0.93930 -4.54732 23.74259 -6.92716 -0.00247 0.00550 -0.00219 -0.47941 7.59602 5.49882 -3.18920 10.27814 5.26007 -104.60307 -48.46272 -87.14973 -26.93948 46.08953 -81.45071 22.15100 8.81828 -14.49765 14.75904 11.99782 3.38617 87.40553 -8.71437 74.02628 16.37925 34.39889 99.48705 13.83827 11.63809 8.11889 23.12573 -3.03545 -24.96203 -28.66530 -4.61527 61.05158 -0.61221 0.04877 -0.00433 6.38315 -9.05371 -50.54019 -8.62443 3.65104 1.17910 23.90910 21.58854 -25.39537 86.29851 0.00165 0.01187 -103.59737 -49.72612 37.88578 
-877.24390 93.04633 -303.93414 -0.78632 -17.08352 -3.23126 -4.12301 24.46825 -5.51049 -0.00203 0.00437 -0.00391 -0.66934 7.78155 5.36809 -2.89753 9.82965 4.57329 -104.72343 -48.74097 -87.27161 -26.97051 46.29974 -81.40163 22.04752 8.43439 -14.68948 15.02756 11.37172 2.72907 87.26066 -8.18111 73.78652 16.11124 34.37159 99.72334 13.88999 11.54596 8.08458 23.18739 -2.63211 -23.14982 -27.81304 -4.34511 59.77799 -0.58093 0.02099 0.00473 7.02405 -8.35398 -50.11675 -8.06730 4.39226 1.01181 22.84549 21.84267 -23.61762 84.30015 0.00031 0.01404 -100.86523 -49.41806 37.77758 
-876.79199 93.20715 -303.24512 -1.69276 -17.32645 -5.34816 -3.79678 25.10637 -4.26999 -0.00269 0.00380 -0.00530 -0.85516 8.01321 5.28829 -2.70377 9.43452 3.89084 -104.94505 -49.18119 -87.49693 -27.12901 46.63326 -81.36131 22.22584 8.21418 -14.72963 15.21374 10.80220 2.06567 87.15486 -7.60821 73.52487 15.79843 34.35497 100.04249 13.96718 11.59086 7.97346 23.21036 -2.48803 -21.47578 -27.13155 -3.70742 58.66679 -0.13240 0.02393 0.00158 6.49350 -7.32364 -50.45752 -7.79553 5.11521 0.94983 22.03644 21.96456 -22.17433 82.13250 -0.00054 0.01699 -98.15234 -49.18223 37.78616 
-876.28064 93.39429 -302.54187 -2.49948 -17.49301 -7.30002 -3.53739 25.65036 -3.21266 -0.00214 0.00336 -0.00616 -1.02073 8.27608 5.26689 -2.48134 9.08724 3.24355 -105.49096 -49.74919 -87.87485 -27.48758 47.15792 -81.26865 22.06481 7.90042 -14.84274 15.46064 10.27821 1.38674 86.94662 -6.99604 73.24580 15.45924 34.31944 100.39968 13.90244 11.51984 7.98382 23.26767 -2.60792 -19.95456 -28.00971 -1.90690 56.18518 3.26993 0.18482 -0.02886 3.65088 -8.84405 -49.05323 -7.75450 5.77420 0.97055 21.46043 22.00432 -21.01336 79.77151 -0.00189 0.01967 -95.07628 -48.75248 37.73997 
-875.72229 93.59785 -301.83234 -3.27482 -17.64607 -9.21293 -3.32117 26.16365 -2.20103 -0.00093 -0.00064 -0.00356 -1.19257 8.58095 5.26304 -2.24299 8.78453 2.66988 -106.02082 -50.28748 -88.21454 -27.86933 47.65834 -81.21305 22.01523 7.65762 -14.94692 15.63995 9.80208 0.60383 86.78301 -6.27367 72.95168 15.12414 34.29189 100.82175 13.86890 11.42676 7.92961 23.37629 -2.83520 -18.48501 -28.73688 -0.09661 54.02156 5.16465 0.05951 0.01586 2.16402 -9.66333 -48.04158 -7.79093 6.43150 1.03224 20.90468 21.95394 -19.91738 77.26515 -0.00103 0.02122 -91.83928 -48.24400 37.68899 
-875.12537 93.79756 -301.11951 -4.01129 -17.77662 -11.08452 -3.14859 26.64449 -1.23918 -0.00085 -0.00017 -0.00292 -1.37073 8.89995 5.28325 -2.01131 8.50720 2.11572 -106.54552 -50.83825 -88.56263 -28.24674 48.12266 -81.17659 22.00413 7.50600 -15.04448 15.76286 9.35447 -0.15753 86.65133 -5.55541 72.65585 14.79713 34.25615 101.26285 13.86634 11.35876 7.85714 23.53083 -3.14777 -17.06856 -29.78423 2.06667 51.88898 5.80479 0.05051 -0.00307 1.41840 -10.21841 -51.59424 -7.88862 7.07019 1.13223 20.38048 21.80361 -18.89712 74.59657 -0.00052 0.02334 -88.38190 -47.65388 37.68443 
-874.50098 93.94581 -300.39917 -4.71096 -17.86953 -12.90586 -3.00419 27.08519 -0.34018 -0.00085 0.00030 -0.00266 -1.55411 9.22693 5.32621 -1.78496 8.25846 1.56816 -107.07757 -51.39585 -88.93246 -28.62232 48.55018 -81.14104 22.02817 7.36942 -15.12370 15.82334 8.93810 -0.87980 86.55773 -4.86339 72.38191 14.49184 34.20811 101.68723 13.89775 11.30705 7.73341 23.69349 -3.40944 -15.72321 -30.51353 4.49845 49.92349 6.15060 0.01492 0.00469 0.74067 -10.89753 -53.08424 -8.03599 7.67648 1.25902 19.90252 21.56554 -17.96576 71.77153 -0.00064 0.02584 -84.92600 -47.08904 37.65612 
-873.90753 93.47185 -299.74561 -5.41820 -17.99855 -14.66567 -2.51241 27.03123 0.12880 0.02031 -0.03131 -0.01697 -1.61685 10.09249 5.38155 0.16265 5.25233 0.21127 -105.53020 -53.49635 -85.51490 -28.64077 49.16549 -82.44516 20.67264 10.29358 -19.22273 18.21032 6.06765 -1.03515 83.73985 -6.20812 69.45930 14.05828 34.27148 102.80976 10.42745 15.11851 7.45122 23.71682 -3.89297 -14.18796 -30.82175 7.67192 46.76464 6.63635 0.01911 -0.01747 -0.70135 -9.26878 -46.14026 -8.13665 8.17972 1.36727 19.18087 21.67684 -16.29848 69.19214 -0.00474 0.00741 -81.84776 -41.25910 34.42108 
-873.29218 93.36488 -299.33902 -6.09807 -18.14235 -16.35895 -1.54087 26.39054 0.09174 0.02271 -0.03046 -0.01743 -1.70089 11.58952 5.46585 2.98888 0.58072 -1.28744 -101.73672 -56.24421 -78.79826 -28.11144 50.05377 -85.25908 18.54848 14.77318 -24.02512 22.49677 1.86970 -0.63639 78.20132 -8.86714 64.67400 13.36582 34.46921 104.70799 5.29820 20.26395 6.82634 23.51959 -4.65824 -12.46115 -30.80204 11.65628 42.58960 6.43913 0.00094 -0.02330 -3.61930 -5.93445 -34.97912 -8.15778 8.48269 1.44220 18.24868 22.00869 -13.94896 66.79711 0.00103 -0.00906 -78.69199 -32.16472 29.64514 
-872.68799 93.47504 -299.11041 -6.75745 -18.28908 -17.99198 -0.24849 25.36746 -0.37932 0.02188 -0.02897 -0.01739 -1.72950 13.60194 5.64616 6.72755 -5.09075 -2.66544 -95.92091 -58.98350 -69.34151 -27.03119 51.02795 -89.29853 15.57728 19.82594 -27.90042 28.25058 -2.98674 0.35294 70.13750 -11.88688 58.75830 12.45447 34.66872 107.15337 -0.29205 25.60737 5.38384 23.07389 -5.67490 -10.55246 -30.41156 16.50075 37.50143 6.04810 -0.00802 -0.02494 -6.44114 -5.19628 -25.46136 -8.03542 8.57507 1.47287 17.05391 22.38727 -10.94392 64.54828 0.01059 -0.02178 -74.50072 -21.09044 24.27125 
-872.07629 93.66750 -299.06458 -7.37805 -18.46734 -19.49494 1.95276 23.13479 -2.11701 0.06455 -0.07543 -0.05530 -1.54568 17.48859 6.23084 13.01863 -11.51356 -5.90581 -88.07079 -63.48465 -57.09536 -24.89618 51.75153 -95.21667 8.84333 23.88926 -26.99926 36.96327 -8.69130 2.14948 56.13636 -15.46767 51.15494 11.21278 34.69339 109.98768 -3.10789 28.95522 -2.96270 21.78248 -7.22726 -8.01303 -29.18084 24.52284 29.95633 0.67314 -0.31121 -0.22283 -2.55771 -8.43609 -19.23536 -7.62608 8.37236 1.40879 14.67729 22.75717 -5.55400 63.21333 0.01273 -0.04126 -65.35132 -8.37730 15.57616 
